<svg width="23" height="22" viewBox="0 0 23 22" fill="none" xmlns="http://www.w3.org/2000/svg">
<path d="M6.73438 21.4062C6.59375 21.5469 6.35938 21.5469 6.21875 21.4062L0.96875 16.1562C0.828125 16.0156 0.828125 15.7812 0.96875 15.6406C1.10938 15.5 1.34375 15.5 1.48438 15.6406L6.125 20.2344V0.875C6.125 0.6875 6.26562 0.5 6.5 0.5C6.6875 0.5 6.875 0.6875 6.875 0.875V20.2344L11.4688 15.6406C11.6094 15.5 11.8438 15.5 11.9844 15.6406C12.125 15.7812 12.125 16.0156 11.9844 16.1562L6.73438 21.4062ZM14.75 12.875C14.75 12.6875 14.8906 12.5 15.125 12.5H21.875C22.0156 12.5 22.1094 12.5938 22.2031 12.7344C22.25 12.875 22.25 13.0156 22.1562 13.1562L15.875 20.75H21.875C22.0625 20.75 22.25 20.9375 22.25 21.125C22.25 21.3594 22.0625 21.5 21.875 21.5H15.125C14.9375 21.5 14.8438 21.4531 14.75 21.3125C14.7031 21.1719 14.7031 21.0312 14.7969 20.8906L21.0781 13.25H15.125C14.8906 13.25 14.75 13.1094 14.75 12.875ZM18.5 0.5C18.6406 0.5 18.7344 0.59375 18.8281 0.734375L21.8281 6.73438L22.9531 8.98438C23.0469 9.17188 22.9531 9.40625 22.7656 9.5C22.5781 9.59375 22.3438 9.5 22.25 9.3125L21.2656 7.25H15.6875L14.7031 9.3125C14.6094 9.5 14.375 9.54688 14.1875 9.5C14 9.40625 13.9062 9.17188 14 8.98438L15.125 6.73438L18.125 0.734375C18.2188 0.59375 18.3594 0.5 18.5 0.5ZM18.5 1.71875L16.0625 6.5H20.8906L18.5 1.71875Z" fill="black"/>
</svg>
