<svg width="21" height="19" viewBox="0 0 21 19" fill="none" xmlns="http://www.w3.org/2000/svg">
<path d="M0.09375 8.76562L9.09375 0.140625C9.23438 0 9.46875 0 9.60938 0.140625C9.75 0.28125 9.75 0.515625 9.60938 0.65625L1.26562 8.625H20.625C20.8125 8.625 21 8.8125 21 9C21 9.23438 20.8125 9.375 20.625 9.375H1.26562L9.60938 17.3906C9.75 17.5312 9.75 17.7656 9.60938 17.9062C9.46875 18.0469 9.23438 18.0469 9.09375 17.9062L0.09375 9.28125C0 9.23438 0 9.14062 0 9C0 8.90625 0 8.8125 0.09375 8.76562Z" fill="black"/>
</svg>
