<svg width="21" height="24" viewBox="0 0 21 24" fill="none" xmlns="http://www.w3.org/2000/svg">
<path d="M0 2.625C0 1.21875 1.17188 0 2.625 0H19.125C20.1562 0 21 0.84375 21 1.875V17.625C21 18.5625 20.3438 19.3125 19.5 19.5V23.25H20.625C20.8125 23.25 21 23.4375 21 23.625C21 23.8594 20.8125 24 20.625 24H2.625C1.17188 24 0 22.8281 0 21.375V2.625ZM2.625 19.5C1.54688 19.5 0.75 20.3438 0.75 21.375C0.75 22.4531 1.54688 23.25 2.625 23.25H18.75V19.5H2.625ZM0.75 19.5469C1.21875 19.0781 1.875 18.75 2.625 18.75H5.25V0.75H2.625C1.54688 0.75 0.75 1.59375 0.75 2.625V19.5469ZM6 0.75V18.75H19.125C19.7344 18.75 20.25 18.2812 20.25 17.625V1.875C20.25 1.26562 19.7344 0.75 19.125 0.75H6ZM8.25 6.375C8.25 6.1875 8.39062 6 8.625 6H17.625C17.8125 6 18 6.1875 18 6.375C18 6.60938 17.8125 6.75 17.625 6.75H8.625C8.39062 6.75 8.25 6.60938 8.25 6.375ZM8.25 10.125C8.25 9.9375 8.39062 9.75 8.625 9.75H17.625C17.8125 9.75 18 9.9375 18 10.125C18 10.3594 17.8125 10.5 17.625 10.5H8.625C8.39062 10.5 8.25 10.3594 8.25 10.125Z" fill="black"/>
</svg>
