<svg width="21" height="24" viewBox="0 0 21 24" fill="none" xmlns="http://www.w3.org/2000/svg">
<path d="M4.5 0H18H19.5C20.2969 0 21 0.703125 21 1.5V16.5C21 17.3438 20.2969 18 19.5 18V21C20.2969 21 21 21.7031 21 22.5C21 23.3438 20.2969 24 19.5 24H18H4.5C2.01562 24 0 21.9844 0 19.5V4.5C0 2.01562 2.01562 0 4.5 0ZM4.5 18C3.65625 18 3 18.7031 3 19.5C3 20.3438 3.65625 21 4.5 21H16.5V18H4.5ZM6 6.75C6 7.17188 6.32812 7.5 6.75 7.5H15.75C16.125 7.5 16.5 7.17188 16.5 6.75C16.5 6.375 16.125 6 15.75 6H6.75C6.32812 6 6 6.375 6 6.75ZM6.75 9C6.32812 9 6 9.375 6 9.75C6 10.1719 6.32812 10.5 6.75 10.5H15.75C16.125 10.5 16.5 10.1719 16.5 9.75C16.5 9.375 16.125 9 15.75 9H6.75Z" fill="black"/>
</svg>
