<svg width="25" height="24" viewBox="0 0 25 24" fill="none" xmlns="http://www.w3.org/2000/svg">
<path d="M13 1.5C9.20312 1.5 5.78125 3.51562 3.90625 6.75C1.98438 10.0312 1.98438 14.0156 3.90625 17.25C5.78125 20.5312 9.20312 22.5 13 22.5C16.75 22.5 20.1719 20.5312 22.0469 17.25C23.9688 14.0156 23.9688 10.0312 22.0469 6.75C20.1719 3.51562 16.75 1.5 13 1.5ZM13 24C8.6875 24 4.75 21.75 2.59375 18C0.4375 14.2969 0.4375 9.75 2.59375 6C4.75 2.29688 8.6875 0 13 0C17.2656 0 21.2031 2.29688 23.3594 6C25.5156 9.75 25.5156 14.2969 23.3594 18C21.2031 21.75 17.2656 24 13 24ZM12.25 16.5V12.75H8.5C8.07812 12.75 7.75 12.4219 7.75 12C7.75 11.625 8.07812 11.25 8.5 11.25H12.25V7.5C12.25 7.125 12.5781 6.75 13 6.75C13.375 6.75 13.75 7.125 13.75 7.5V11.25H17.5C17.875 11.25 18.25 11.625 18.25 12C18.25 12.4219 17.875 12.75 17.5 12.75H13.75V16.5C13.75 16.9219 13.375 17.25 13 17.25C12.5781 17.25 12.25 16.9219 12.25 16.5Z" fill="white"/>
</svg>
