<svg width="30" height="24" viewBox="0 0 30 24" fill="none" xmlns="http://www.w3.org/2000/svg">
<path d="M12.8438 1.64062L19.3594 8.15625C20.6719 9.46875 20.6719 11.5781 19.3594 12.8906L12.8438 19.4062C11.5312 20.7188 9.42188 20.7188 8.10938 19.4062L1.59375 12.8906C0.28125 11.5781 0.28125 9.46875 1.59375 8.15625L8.10938 1.64062C9.42188 0.328125 11.5312 0.328125 12.8438 1.64062ZM9.375 10.5C9.375 11.1562 9.84375 11.625 10.5 11.625C11.1094 11.625 11.625 11.1562 11.625 10.5C11.625 9.89062 11.1094 9.375 10.5 9.375C9.84375 9.375 9.375 9.89062 9.375 10.5ZM4.5 9.375C3.84375 9.375 3.375 9.89062 3.375 10.5C3.375 11.1562 3.84375 11.625 4.5 11.625C5.10938 11.625 5.625 11.1562 5.625 10.5C5.625 9.89062 5.10938 9.375 4.5 9.375ZM10.5 17.625C11.1094 17.625 11.625 17.1562 11.625 16.5C11.625 15.8906 11.1094 15.375 10.5 15.375C9.84375 15.375 9.375 15.8906 9.375 16.5C9.375 17.1562 9.84375 17.625 10.5 17.625ZM16.5 9.375C15.8438 9.375 15.375 9.89062 15.375 10.5C15.375 11.1562 15.8438 11.625 16.5 11.625C17.1094 11.625 17.625 11.1562 17.625 10.5C17.625 9.89062 17.1094 9.375 16.5 9.375ZM10.5 5.625C11.1094 5.625 11.625 5.15625 11.625 4.5C11.625 3.89062 11.1094 3.375 10.5 3.375C9.84375 3.375 9.375 3.89062 9.375 4.5C9.375 5.15625 9.84375 5.625 10.5 5.625ZM15 21V19.4062L20.4375 13.9688C21.75 12.6094 22.1719 10.6875 21.6094 9H27C28.6406 9 30 10.3594 30 12V21C30 22.6875 28.6406 24 27 24H18C16.3125 24 15 22.6875 15 21ZM22.5 15.375C21.8438 15.375 21.375 15.8906 21.375 16.5C21.375 17.1562 21.8438 17.625 22.5 17.625C23.1094 17.625 23.625 17.1562 23.625 16.5C23.625 15.8906 23.1094 15.375 22.5 15.375Z" fill="#830C0C"/>
</svg>
