<svg width="30" height="24" viewBox="0 0 30 24" fill="none" xmlns="http://www.w3.org/2000/svg">
<path d="M12.3281 2.15625C11.2969 1.125 9.65625 1.125 8.625 2.15625L2.10938 8.67188C1.07812 9.70312 1.07812 11.3438 2.10938 12.375L8.625 18.8906C9.65625 19.9219 11.2969 19.9219 12.3281 18.8906L18.8438 12.375C19.875 11.3438 19.875 9.70312 18.8438 8.67188L12.3281 2.15625ZM8.10938 1.64062C9.42188 0.328125 11.5312 0.328125 12.8438 1.64062L19.3594 8.15625C20.6719 9.46875 20.6719 11.5781 19.3594 12.8906L12.8438 19.4062C11.5312 20.7188 9.42188 20.7188 8.10938 19.4062L1.59375 12.8906C0.28125 11.5781 0.28125 9.46875 1.59375 8.15625L8.10938 1.64062ZM15 21V19.4062L15.75 18.6562V21C15.75 22.2656 16.7344 23.25 18 23.25H27C28.2188 23.25 29.25 22.2656 29.25 21V12C29.25 10.7812 28.2188 9.75 27 9.75H21.7969C21.75 9.51562 21.7031 9.28125 21.6094 9H27C28.6406 9 30 10.3594 30 12V21C30 22.6875 28.6406 24 27 24H18C16.3125 24 15 22.6875 15 21ZM21.75 16.5C21.75 16.9219 22.0781 17.25 22.5 17.25C22.875 17.25 23.25 16.9219 23.25 16.5C23.25 16.125 22.875 15.75 22.5 15.75C22.0781 15.75 21.75 16.125 21.75 16.5ZM22.5 18C21.6562 18 21 17.3438 21 16.5C21 15.7031 21.6562 15 22.5 15C23.2969 15 24 15.7031 24 16.5C24 17.3438 23.2969 18 22.5 18ZM9.75 5.625C9.75 6.04688 10.0781 6.375 10.5 6.375C10.875 6.375 11.25 6.04688 11.25 5.625C11.25 5.25 10.875 4.875 10.5 4.875C10.0781 4.875 9.75 5.25 9.75 5.625ZM10.5 4.125C11.2969 4.125 12 4.82812 12 5.625C12 6.46875 11.2969 7.125 10.5 7.125C9.65625 7.125 9 6.46875 9 5.625C9 4.82812 9.65625 4.125 10.5 4.125ZM4.875 10.5C4.875 10.9219 5.20312 11.25 5.625 11.25C6 11.25 6.375 10.9219 6.375 10.5C6.375 10.125 6 9.75 5.625 9.75C5.20312 9.75 4.875 10.125 4.875 10.5ZM5.625 12C4.78125 12 4.125 11.3438 4.125 10.5C4.125 9.70312 4.78125 9 5.625 9C6.42188 9 7.125 9.70312 7.125 10.5C7.125 11.3438 6.42188 12 5.625 12ZM9.75 10.5C9.75 10.9219 10.0781 11.25 10.5 11.25C10.875 11.25 11.25 10.9219 11.25 10.5C11.25 10.125 10.875 9.75 10.5 9.75C10.0781 9.75 9.75 10.125 9.75 10.5ZM10.5 12C9.65625 12 9 11.3438 9 10.5C9 9.70312 9.65625 9 10.5 9C11.2969 9 12 9.70312 12 10.5C12 11.3438 11.2969 12 10.5 12ZM9.75 15.375C9.75 15.7969 10.0781 16.125 10.5 16.125C10.875 16.125 11.25 15.7969 11.25 15.375C11.25 15 10.875 14.625 10.5 14.625C10.0781 14.625 9.75 15 9.75 15.375ZM10.5 13.875C11.2969 13.875 12 14.5781 12 15.375C12 16.2188 11.2969 16.875 10.5 16.875C9.65625 16.875 9 16.2188 9 15.375C9 14.5781 9.65625 13.875 10.5 13.875ZM14.625 10.5C14.625 10.9219 14.9531 11.25 15.375 11.25C15.75 11.25 16.125 10.9219 16.125 10.5C16.125 10.125 15.75 9.75 15.375 9.75C14.9531 9.75 14.625 10.125 14.625 10.5ZM15.375 12C14.5312 12 13.875 11.3438 13.875 10.5C13.875 9.70312 14.5312 9 15.375 9C16.1719 9 16.875 9.70312 16.875 10.5C16.875 11.3438 16.1719 12 15.375 12Z" fill="#830C0C"/>
</svg>
