<svg width="24" height="21" viewBox="0 0 24 21" fill="none" xmlns="http://www.w3.org/2000/svg">
<path d="M2.20312 12.1091C0.796875 10.7966 0 8.92162 0 6.95287V6.7185C0 3.43725 2.34375 0.624749 5.57812 0.109124C7.73438 -0.265876 9.89062 0.437249 11.4375 1.93725L12 2.49975L12.5625 1.93725C14.0625 0.437249 16.2656 -0.265876 18.375 0.109124C21.6094 0.624749 24 3.43725 24 6.7185V6.95287C24 8.92162 23.1562 10.7966 21.75 12.1091L13.2656 20.031C12.9375 20.3591 12.4688 20.4997 12 20.4997C11.4844 20.4997 11.0156 20.3591 10.6875 20.031L2.20312 12.1091Z" fill="#830C0C"/>
</svg>
