<svg width="24" height="22" viewBox="0 0 24 22" fill="none" xmlns="http://www.w3.org/2000/svg">
<path d="M18.4219 1.71837C16.4062 1.48399 14.3906 2.32774 13.2188 3.96837L12.2812 5.23399C12.1875 5.32774 12.0938 5.42149 11.9531 5.42149C11.8594 5.42149 11.7188 5.32774 11.6719 5.23399L10.7344 3.96837C9.5625 2.32774 7.54688 1.48399 5.53125 1.71837C2.8125 2.09337 0.75 4.39024 0.75 7.15587C0.75 8.56212 1.26562 9.92149 2.25 10.9527L11.625 20.609C11.7188 20.7027 11.8594 20.7496 12 20.7496C12.1406 20.7496 12.2812 20.7027 12.375 20.609L21.7031 10.9527C22.6875 9.92149 23.25 8.56212 23.25 7.15587C23.25 4.39024 21.1406 2.09337 18.4219 1.71837ZM12.6094 3.49962C13.9688 1.67149 16.2656 0.687119 18.5156 0.968369C21.6094 1.39024 24 4.01524 24 7.15587C24 8.74962 23.3438 10.3434 22.2188 11.4684L12.9375 21.1246C12.7031 21.359 12.3281 21.4996 12 21.4996C11.625 21.4996 11.2969 21.359 11.0625 21.1246L1.73438 11.4684C0.609375 10.3434 0 8.74962 0 7.15587C0 4.01524 2.34375 1.39024 5.4375 0.968369C7.6875 0.687119 9.98438 1.67149 11.3438 3.49962L12 4.39024L12.6094 3.49962Z" fill="#830C0C"/>
</svg>
