<svg width="24" height="25" viewBox="0 0 24 25" fill="none" xmlns="http://www.w3.org/2000/svg">
<path d="M23.25 12C23.25 8.01562 21.0938 4.3125 17.625 2.29688C14.1094 0.28125 9.84375 0.28125 6.375 2.29688C2.85938 4.3125 0.75 8.01562 0.75 12C0.75 16.0312 2.85938 19.7344 6.375 21.75C9.84375 23.7656 14.1094 23.7656 17.625 21.75C21.0938 19.7344 23.25 16.0312 23.25 12ZM0 12C0 7.73438 2.25 3.79688 6 1.64062C9.70312 -0.515625 14.25 -0.515625 18 1.64062C21.7031 3.79688 24 7.73438 24 12C24 16.3125 21.7031 20.25 18 22.4062C14.25 24.5625 9.70312 24.5625 6 22.4062C2.25 20.25 0 16.3125 0 12ZM11.625 4.875C11.625 4.6875 11.7656 4.5 12 4.5C12.1875 4.5 12.375 4.6875 12.375 4.875V11.8125L16.6875 14.7188C16.875 14.8125 16.9219 15.0469 16.7812 15.2344C16.6875 15.4219 16.4531 15.4688 16.2656 15.3281L11.7656 12.3281C11.6719 12.2812 11.625 12.1406 11.625 12V4.875Z" fill="black"/>
</svg>
