<svg width="28" height="24" viewBox="0 0 28 24" fill="none" xmlns="http://www.w3.org/2000/svg">
<path d="M14.7344 0.09375L27.8594 11.7188C28 11.8594 28 12.0938 27.9062 12.2812C27.7656 12.4219 27.5312 12.4219 27.3438 12.2812L25 10.2188V21C25 22.6875 23.6406 24 22 24H7C5.3125 24 4 22.6875 4 21V10.2188L1.60938 12.2812C1.46875 12.4219 1.1875 12.4219 1.09375 12.2812C0.953125 12.0938 0.953125 11.8594 1.09375 11.7188L14.2188 0.09375C14.3594 0 14.5938 0 14.7344 0.09375ZM4.75 21C4.75 22.2656 5.73438 23.25 7 23.25H10.75V15.375C10.75 14.7656 11.2188 14.25 11.875 14.25H17.125C17.7344 14.25 18.25 14.7656 18.25 15.375V23.25H22C23.2188 23.25 24.25 22.2656 24.25 21V9.51562L14.5 0.890625L4.75 9.51562V21ZM11.5 23.25H17.5V15.375C17.5 15.1875 17.3125 15 17.125 15H11.875C11.6406 15 11.5 15.1875 11.5 15.375V23.25Z" fill="black"/>
</svg>
