<svg width="24" height="25" viewBox="0 0 24 25" fill="none" xmlns="http://www.w3.org/2000/svg">
<path d="M6 19.5H0.75V21.75C0.75 22.5938 1.40625 23.25 2.25 23.25H4.5C5.29688 23.25 6 22.5938 6 21.75V19.5ZM4.5 24H2.25C0.984375 24 0 23.0156 0 21.75V19.5V19.125V18.75V5.25V4.875V4.5V2.25C0 1.03125 0.984375 0 2.25 0H4.5C5.25 0 5.95312 0.421875 6.375 1.03125C6.75 0.421875 7.45312 0 8.25 0H10.5C11.4375 0 12.2812 0.609375 12.5625 1.5C12.8438 1.17188 13.1719 0.984375 13.5938 0.890625L16.3594 0.09375C17.5312 -0.234375 18.75 0.46875 19.0312 1.6875L19.875 4.92188L19.9688 5.29688L23.0625 17.2031L23.1562 17.5312L23.9062 20.4375C24.2344 21.6094 23.5312 22.875 22.3594 23.1562L19.5938 23.9531C18.4219 24.2812 17.25 23.5781 16.9219 22.3594L16.0781 19.125L15.9844 18.75L12.8906 6.84375L12.7969 6.51562L12.75 6.23438V18.75V19.125V19.5V21.75C12.75 23.0156 11.7188 24 10.5 24H8.25C7.45312 24 6.75 23.625 6.375 23.0156C5.95312 23.625 5.25 24 4.5 24ZM12.75 3.04688C12.75 3.1875 12.75 3.28125 12.7969 3.42188L13.5469 6.28125L19.0781 4.78125L18.3281 1.875C18.0938 1.07812 17.2969 0.609375 16.5938 0.84375L13.7812 1.59375C13.1719 1.78125 12.75 2.34375 12.75 3V3.04688ZM12 3.04688V2.25C12 1.45312 11.2969 0.75 10.5 0.75H8.25C7.40625 0.75 6.75 1.45312 6.75 2.25V4.5H12V3.04688ZM8.25 23.25H10.5C11.2969 23.25 12 22.5938 12 21.75V19.5H6.75V21.75C6.75 22.5938 7.40625 23.25 8.25 23.25ZM6 5.25H0.75V18.75H6V5.25ZM6 2.25C6 1.45312 5.29688 0.75 4.5 0.75H2.25C1.40625 0.75 0.75 1.45312 0.75 2.25V4.5H6V2.25ZM12 18.75V5.25H6.75V18.75H12ZM19.2656 5.48438L13.7344 7.03125L16.6875 18.5625L22.2656 17.0156L19.2656 5.48438ZM22.4531 17.7656L16.875 19.2656L17.625 22.1719C17.8594 22.9688 18.6562 23.4375 19.3594 23.2031L22.1719 22.4531C22.9219 22.2656 23.3906 21.4219 23.1562 20.625L22.4531 17.7656Z" fill="black"/>
</svg>
