<svg width="24" height="25" viewBox="0 0 24 25" fill="none" xmlns="http://www.w3.org/2000/svg">
<path d="M0 1.5C0 0.703125 0.65625 0 1.5 0H4.5C5.29688 0 6 0.703125 6 1.5V4.5H0V1.5ZM0 6H6V18H0V6ZM0 19.5H6V22.5C6 23.3438 5.29688 24 4.5 24H1.5C0.65625 24 0 23.3438 0 22.5V19.5ZM7.5 1.5C7.5 0.703125 8.15625 0 9 0H12C12.7969 0 13.5 0.703125 13.5 1.5V4.5H7.5V1.5ZM7.5 6H13.5V18H7.5V6ZM7.5 19.5H13.5V22.5C13.5 23.3438 12.7969 24 12 24H9C8.15625 24 7.5 23.3438 7.5 22.5V19.5ZM17.0156 18.6094L15 10.9219V6.70312L19.6875 5.4375L22.7812 17.0625L17.0156 18.6094ZM19.3125 3.98438L15 5.15625V0.515625L16.6875 0.09375C17.4844 -0.140625 18.3281 0.328125 18.5156 1.125L19.3125 3.98438ZM17.3906 20.0156L23.1562 18.5156L23.9062 21.375C24.1406 22.1719 23.6719 22.9688 22.875 23.2031L20.0156 23.9531C19.2188 24.1875 18.375 23.7188 18.1875 22.9219L17.3906 20.0156Z" fill="black"/>
</svg>
