<svg width="21" height="19" viewBox="0 0 21 19" fill="none" xmlns="http://www.w3.org/2000/svg">
<path d="M20.8594 9.28125L11.8594 17.9062C11.7188 18.0469 11.4844 18.0469 11.3438 17.9062C11.2031 17.7656 11.2031 17.5312 11.3438 17.3906L19.6875 9.375H0.375C0.140625 9.375 0 9.23438 0 9C0 8.8125 0.140625 8.625 0.375 8.625H19.6875L11.3438 0.65625C11.2031 0.515625 11.2031 0.28125 11.3438 0.140625C11.4844 0 11.7188 0 11.8594 0.140625L20.8594 8.76562C20.9531 8.8125 21 8.90625 21 9C21 9.14062 20.9531 9.23438 20.8594 9.28125Z" fill="black"/>
</svg>
