<svg width="24" height="25" viewBox="0 0 24 25" fill="none" xmlns="http://www.w3.org/2000/svg">
<path d="M5.25 9.75C5.25 6.5625 6.98438 3.60938 9.75 1.96875C12.5625 0.375 15.9844 0.375 18.75 1.96875C21.5625 3.60938 23.25 6.5625 23.25 9.75C23.25 12.9844 21.5625 15.9375 18.75 17.5781C15.9844 19.1719 12.5625 19.1719 9.75 17.5781C6.98438 15.9375 5.25 12.9844 5.25 9.75ZM7.64062 16.9219C9.375 18.5156 11.7188 19.5 14.25 19.5C19.6406 19.5 24 15.1406 24 9.75C24 4.40625 19.6406 0 14.25 0C8.90625 0 4.5 4.40625 4.5 9.75C4.5 12.3281 5.48438 14.6719 7.125 16.4062L0.140625 23.3906C0 23.5312 0 23.7656 0.140625 23.9062C0.28125 24.0469 0.515625 24.0469 0.65625 23.9062L7.64062 16.9219Z" fill="black"/>
</svg>
