<svg width="23" height="22" viewBox="0 0 23 22" fill="none" xmlns="http://www.w3.org/2000/svg">
<path d="M11.9844 16.1562L6.73438 21.4062C6.59375 21.5469 6.35938 21.5469 6.21875 21.4062L0.96875 16.1562C0.828125 16.0156 0.828125 15.7812 0.96875 15.6406C1.10938 15.5 1.34375 15.5 1.48438 15.6406L6.125 20.2344V0.875C6.125 0.6875 6.26562 0.5 6.5 0.5C6.6875 0.5 6.875 0.6875 6.875 0.875V20.2344L11.4688 15.6406C11.6094 15.5 11.8438 15.5 11.9844 15.6406C12.125 15.7812 12.125 16.0156 11.9844 16.1562ZM14.75 0.875C14.75 0.6875 14.8906 0.5 15.125 0.5H21.875C22.0156 0.5 22.1094 0.59375 22.2031 0.734375C22.25 0.875 22.25 1.01562 22.1562 1.15625L15.875 8.75H21.875C22.0625 8.75 22.25 8.9375 22.25 9.125C22.25 9.35938 22.0625 9.5 21.875 9.5H15.125C14.9375 9.5 14.8438 9.45312 14.75 9.3125C14.7031 9.17188 14.7031 9.03125 14.7969 8.89062L21.0781 1.25H15.125C14.8906 1.25 14.75 1.10938 14.75 0.875ZM18.8281 12.7344L21.8281 18.7344L22.9531 20.9844C23.0469 21.1719 22.9531 21.4062 22.7656 21.5C22.5781 21.5469 22.3438 21.5 22.25 21.3125L21.2656 19.25H15.6875L14.7031 21.3125C14.6094 21.5 14.375 21.5938 14.1875 21.5C14 21.4062 13.9062 21.1719 14 20.9844L15.125 18.7344L18.125 12.7344C18.2188 12.5938 18.3125 12.5469 18.4531 12.5469C18.6406 12.5469 18.7344 12.5938 18.8281 12.7344ZM20.8906 18.5L18.5 13.7188L16.0625 18.5H20.8906Z" fill="black"/>
</svg>
